<?xml version="1.0" encoding="UTF-8"?>
<svg version="1.1" xmlns="http://www.w3.org/2000/svg" width="3375" height="3375">
<path d="M0 0 C1113.75 0 2227.5 0 3375 0 C3375 1113.75 3375 2227.5 3375 3375 C2261.25 3375 1147.5 3375 0 3375 C0 2261.25 0 1147.5 0 0 Z " fill="#FEFEFE" transform="translate(0,0)"/>
<path d="M0 0 C41.58 0 83.16 0 126 0 C133.89864865 34.97972973 133.89864865 34.97972973 136.5 48 C138.69731075 58.86709327 141.02230531 69.69282794 143.5 80.5 C145.95325173 91.20404325 148.25291947 101.92612726 150.4375 112.6875 C152.77428802 124.19579219 155.23297449 135.66871227 157.8125 147.125 C161.27950448 162.52510942 164.51280003 177.96893896 167.70602417 193.42791748 C170.57825814 207.32150796 173.56548446 221.17794612 176.73632812 235.00634766 C178.44862453 242.49097181 180.04766515 249.98483805 181.51757812 257.52050781 C183.60323193 268.18198286 185.9352142 278.79188992 188.2265625 289.41064453 C189.20663245 293.95893633 190.17964879 298.50872008 191.15234375 303.05859375 C192.43155691 309.03977959 193.71529978 315.0199906 195 321 C195.14824219 321.69007141 195.29648437 322.38014282 195.44921875 323.09112549 C196.58882719 328.39458426 197.73087974 333.69751275 198.875 339 C199.12704697 340.1683136 199.12704697 340.1683136 199.38418579 341.36022949 C201.73155244 352.23180121 204.12951635 363.09115863 206.5602417 373.94436646 C210.31352545 390.70689017 213.82793066 407.51081388 217.25244141 424.34326172 C218.2946517 429.44131063 219.36135004 434.53402085 220.4375 439.625 C220.6015332 440.40109619 220.76556641 441.17719238 220.93457031 441.97680664 C221.28902561 443.65135019 221.64437774 445.32570389 222 447 C225.63 447.33 229.26 447.66 233 448 C233.37125 445.710625 233.37125 445.710625 233.75 443.375 C234.53663167 439.03199415 235.5684544 434.86188753 236.828125 430.6328125 C239.14353612 422.646642 241.08629714 414.59025359 243 406.5 C244.85446527 398.66017565 246.71395464 390.84488383 248.97265625 383.109375 C251.64087862 373.95225459 253.79032708 364.67344206 255.99731445 355.39697266 C258.01568315 346.93057232 260.09795124 338.50035162 262.46875 330.125 C265.26781801 320.23060744 267.67025967 310.24921374 270.0625 300.25 C272.53542889 289.91726459 275.04781654 279.63582245 278.03295898 269.43652344 C279.88872117 262.84179774 281.42322168 256.16589192 283 249.5 C284.84330726 241.70734657 286.68687641 233.93737095 288.9375 226.25 C291.60984333 217.07947806 293.77621427 207.78708096 296 198.5 C298.47485091 188.16440858 300.98585541 177.87963845 303.97265625 167.67773438 C306.20738233 159.67775489 308.06598958 151.57690737 310 143.5 C312.49613476 133.07552194 315.02722931 122.70011339 318.03955078 112.41015625 C320.06227584 105.22829969 321.70964033 97.94824702 323.42456055 90.68798828 C325.29486404 82.78907008 327.26131904 74.93710104 329.46875 67.125 C332.07681371 57.88953737 334.34159754 48.58495767 336.5625 39.25 C339.14040338 28.41946509 341.85399351 17.68214114 345 7 C345.66 4.69 346.32 2.38 347 0 C382.64 0 418.28 0 455 0 C459.44968268 14.46146872 459.44968268 14.46146872 460.9375 21.1875 C462.22601687 26.86143937 463.65068875 32.4685171 465.25 38.0625 C467.69980443 46.65876715 469.85304035 55.32451263 472 64 C475.06531686 76.4153312 475.06531686 76.4153312 478.4375 88.75 C481.02833406 97.7726249 483.2417014 106.88993903 485.5 116 C488.84117977 129.54179097 488.84117977 129.54179097 492.5 143 C494.15221174 148.83654443 495.70468168 154.68957686 497.16015625 160.578125 C497.45187965 161.7496109 497.45187965 161.7496109 497.74949646 162.94476318 C498.74009861 166.92393419 499.7239326 170.90472614 500.703125 174.88671875 C502.36557947 181.62443809 504.06183553 188.334897 506 195 C508.15814124 202.42157535 510.01634106 209.90583876 511.86160278 217.40979004 C514.4772178 228.0385761 517.09247836 238.6576746 520.11694336 249.17871094 C522.46331908 257.4473669 524.46642597 265.80659171 526.53204346 274.14868164 C528.40592174 281.70992213 530.28497475 289.26213143 532.4375 296.75 C535.49223034 307.38190919 538.06176385 318.14536151 540.70288086 328.88574219 C542.35385618 335.57694274 544.03547129 342.24161778 545.96484375 348.859375 C548.82725743 358.70206064 551.19650053 368.67140758 553.64550781 378.62304688 C555.94045104 387.93515338 558.30191705 397.19910679 560.98632812 406.40820312 C562.84966223 413.01065287 564.49151267 419.67005711 566.14697266 426.32714844 C566.75978537 428.78931581 567.3777411 431.25015625 567.99609375 433.7109375 C568.38832337 435.28117446 568.78026182 436.85148419 569.171875 438.421875 C569.3561908 439.15508972 569.54050659 439.88830444 569.73040771 440.64373779 C571 445.7699555 571 445.7699555 571 448 C574.96 448 578.92 448 583 448 C583.09152344 446.53433594 583.18304687 445.06867188 583.27734375 443.55859375 C584.00811523 435.58619463 585.82173122 427.85974191 587.5625 420.0625 C587.92238054 418.42615436 588.28166252 416.78967698 588.64038086 415.15307617 C590.42715675 407.01935188 592.24620205 398.89279708 594.0625 390.765625 C594.56332205 388.523913 595.06409597 386.28219029 595.56472778 384.04043579 C595.89730163 382.55189717 596.23020918 381.06343306 596.56344604 379.57504272 C599.19374061 367.8178232 601.66336293 356.03348292 604.0612793 344.22689819 C606.15430973 333.93483718 608.40615209 323.69026525 610.8034668 313.46435547 C614.36821739 298.22809323 617.59557813 282.91748902 620.72265625 267.5859375 C620.86831528 266.87201843 621.0139743 266.15809937 621.16404724 265.42254639 C621.31044144 264.70496155 621.45683563 263.98737671 621.60766602 263.24804688 C621.90509027 261.79036042 622.20253499 260.33267814 622.5 258.875 C622.64766815 258.15094971 622.7953363 257.42689941 622.94747925 256.6809082 C625.05115617 246.38509008 627.31571077 236.14086686 629.72827148 225.91235352 C631.83278801 216.91043578 633.71570775 207.86996621 635.5625 198.8125 C635.71187012 198.08034271 635.86124023 197.34818542 636.01513672 196.59384155 C636.16354004 195.86637726 636.31194336 195.13891296 636.46484375 194.3894043 C636.75907943 192.94709569 637.05334979 191.50479416 637.34765625 190.0625 C637.49067169 189.36151688 637.63368713 188.66053375 637.78103638 187.93830872 C640.24351081 175.89206588 642.88142365 163.8853608 645.6171875 151.8984375 C646.20342698 149.32819328 646.78947809 146.75790763 647.375 144.1875 C647.52291992 143.53850739 647.67083984 142.88951477 647.82324219 142.22085571 C650.34619852 131.12802284 652.67200194 120.00153082 654.9359436 108.853302 C657.28773988 97.28741165 659.81724494 85.77276863 662.44311523 74.26611328 C666.02523581 58.55548169 669.41183236 42.80343025 672.63671875 27.015625 C672.84017662 26.02207504 672.84017662 26.02207504 673.04774475 25.00845337 C673.70232434 21.81114897 674.35292929 18.61314815 674.99633789 15.41357422 C675.34619751 13.69678467 675.34619751 13.69678467 675.703125 11.9453125 C675.90583008 10.94000488 676.10853516 9.93469727 676.31738281 8.89892578 C677.02749274 5.88324436 678.02027603 2.93917191 679 0 C718.93 0 758.86 0 800 0 C799.34448775 5.89961028 798.77164924 10.42769009 797.1875 15.9375 C794.79179453 24.55488833 792.8912961 33.26095798 791 42 C789.87738622 47.16718772 788.75233292 52.3338401 787.625 57.5 C787.47430054 58.19061523 787.32360107 58.88123047 787.16833496 59.59277344 C783.28801682 77.3585336 779.19974043 95.07191525 774.9375 112.75 C771.58220191 126.66899188 768.38042316 140.61729391 765.34375 154.609375 C764.750097 157.34377108 764.15638556 160.07815442 763.5625 162.8125 C763.41305939 163.50086945 763.26361877 164.18923889 763.10964966 164.89846802 C760.95745631 174.79705005 758.67294764 184.65597119 756.26757812 194.49633789 C754.2317436 202.88609791 752.38336022 211.31176297 750.5625 219.75 C748.0328442 231.4680885 745.32574539 243.1278532 742.48461914 254.77514648 C739.25723895 268.00894948 736.23720564 281.28222952 733.34765625 294.59375 C732.90335237 296.63960897 732.45901742 298.68546116 732.0145874 300.73129272 C731.7133624 302.11799731 731.41229614 303.50473638 731.11138916 304.89151001 C728.9219321 314.96849724 726.58822738 325.00281273 724.13574219 335.01928711 C722.14167422 343.23240488 720.38498344 351.48443126 718.73583984 359.7734375 C717.60901486 365.36924841 716.26218936 370.84966267 714.7253418 376.34667969 C713.60831742 380.43278569 712.67389282 384.55414811 711.75 388.6875 C711.54238037 389.60756836 711.33476074 390.52763672 711.12084961 391.47558594 C709.3837435 399.20700259 707.69752719 406.94949099 706.01083374 414.6920166 C701.85678723 433.76030877 697.5117862 452.777673 692.9375 471.75 C689.09670242 487.68301965 685.50191599 503.66435233 682.01385498 519.67791748 C677.6298912 539.80383855 673.0124552 559.86748029 668.17944336 579.890625 C665.68780087 590.23889338 663.34632398 600.61751641 661 611 C658.03 623.87 658.03 623.87 655 637 C608.14 637 561.28 637 513 637 C510.47946273 628.17811956 507.99193681 619.36207569 505.625 610.5 C505.01461021 608.22388127 504.40392837 605.94784084 503.79296875 603.671875 C503.49181152 602.54974609 503.1906543 601.42761719 502.88037109 600.27148438 C501.57697029 595.42800938 500.25908943 590.58853919 498.9375 585.75 C498.57229248 584.41291992 498.57229248 584.41291992 498.19970703 583.04882812 C497.71121289 581.26103693 497.22260677 579.47327633 496.73388672 577.68554688 C495.23604702 572.20443023 493.74220536 566.72222237 492.24755859 561.24023438 C491.01135506 556.70668483 489.77429505 552.17337321 488.53515625 547.640625 C485.53486346 536.6608301 482.56295583 525.67369886 479.60791016 514.68164062 C476.76525173 504.11378746 473.88628714 493.55600598 471 483 C467.50950859 470.23424025 464.04377228 457.46222028 460.60791016 444.68164062 C457.76525173 434.11378746 454.88628714 423.55600598 452 413 C448.50950859 400.23424025 445.04377228 387.46222028 441.60791016 374.68164062 C438.76525173 364.11378746 435.88628714 353.55600598 433 343 C429.50950859 330.23424025 426.04377228 317.46222028 422.60791016 304.68164062 C420.24664631 295.9034176 417.86237878 287.13165987 415.46484375 278.36328125 C414.47330208 274.7369014 413.4867082 271.10922675 412.50390625 267.48046875 C412.00275079 265.63277273 411.50144926 263.78511631 411 261.9375 C410.75677002 261.04015137 410.51354004 260.14280273 410.26293945 259.21826172 C408.9766998 254.4970955 407.6570163 249.78803084 406.2890625 245.08984375 C405.87140625 243.65233765 405.87140625 243.65233765 405.4453125 242.18579102 C404.91112998 240.35542096 404.37230086 238.52639852 403.828125 236.69897461 C403.58835937 235.87792236 403.34859375 235.05687012 403.1015625 234.2109375 C402.88838379 233.49212402 402.67520508 232.77331055 402.45556641 232.03271484 C402 230 402 230 402 226 C398.7 226 395.4 226 392 226 C391.82210937 227.97226563 391.82210937 227.97226563 391.640625 229.984375 C391.12692026 234.58616359 390.07857734 238.82547178 388.75 243.25 C386.8072972 249.96167002 385.07840159 256.69361216 383.5 263.5 C381.80325217 270.78884632 379.92734534 277.99537039 377.875 285.19140625 C376.25669521 290.92627384 374.85151027 296.6969528 373.5 302.5 C371.80249014 309.78868295 369.92735537 316.99533525 367.875 324.19140625 C366.25669521 329.92627384 364.85151027 335.6969528 363.5 341.5 C361.80249014 348.78868295 359.92735537 355.99533525 357.875 363.19140625 C356.25669521 368.92627384 354.85151027 374.6969528 353.5 380.5 C351.80249014 387.78868295 349.92735537 394.99533525 347.875 402.19140625 C346.03714136 408.7043178 344.46019957 415.26813863 342.96289062 421.8671875 C341.71006511 427.30049393 340.266184 432.66626832 338.75 438.03125 C335.39298269 449.95101123 332.46913454 461.97904535 329.5 474 C323.1533157 499.69543521 323.1533157 499.69543521 319.62817383 512.16906738 C318.10064398 517.58274751 316.74443618 523.01543036 315.5 528.5 C313.80662369 535.78958183 311.92730275 542.99551973 309.875 550.19140625 C308.25669521 555.92627384 306.85151027 561.6969528 305.5 567.5 C303.8021354 574.79020613 301.92846546 581.99898079 299.87280273 589.19580078 C298.05059421 595.64558131 296.49646319 602.14721243 295.05078125 608.69140625 C292.85321441 618.31360964 289.85984058 627.46719808 287 637 C240.47 637 193.94 637 146 637 C144.44653023 632.33959069 143.17033106 627.77990928 142.08203125 623.0078125 C141.90414566 622.23769836 141.72626007 621.46758423 141.54298401 620.6741333 C140.96304255 618.15846019 140.3876357 615.64177578 139.8125 613.125 C139.40778959 611.36407787 139.00300355 609.60317312 138.59814453 607.84228516 C135.96940778 596.38031786 133.43295676 584.90030282 130.94961548 573.40609741 C128.66400812 562.84306246 126.18688869 552.33670625 123.62011719 541.83886719 C121.22406999 532.01214192 118.97543852 522.15670295 116.765625 512.28662109 C115.13700831 505.017186 113.4876839 497.75315466 111.8046875 490.49609375 C111.61640381 489.684216 111.42812012 488.87233826 111.23413086 488.03585815 C110.84962575 486.37850645 110.46506322 484.72116807 110.08044434 483.06384277 C107.09195032 470.18535046 104.16576533 457.29782045 101.375 444.375 C98.95140278 433.15442424 96.34650457 421.98951925 93.62011719 410.83886719 C91.22406999 401.01214192 88.97543852 391.15670295 86.765625 381.28662109 C85.13700831 374.017186 83.4876839 366.75315466 81.8046875 359.49609375 C81.61640381 358.684216 81.42812012 357.87233826 81.23413086 357.03585815 C80.84962575 355.37850645 80.46506322 353.72116807 80.08044434 352.06384277 C76.93950183 338.52839528 73.8804381 324.98038853 70.94824219 311.39822388 C68.67076058 300.86667119 66.19154175 290.39541474 63.62451172 279.93115234 C61.28026938 270.31465402 59.14934238 260.66182469 57.06652832 250.98635864 C54.66972165 239.86689977 52.05819046 228.81501519 49.3503418 217.7668457 C47.63152492 210.72210354 46.06631947 203.69066 44.72436523 196.56420898 C43.9840636 192.9215856 43.10807415 189.3394195 42.1875 185.73828125 C39.89694999 176.68702424 37.78041062 167.59867735 35.6875 158.5 C35.4933551 157.65850403 35.29921021 156.81700806 35.09918213 155.95001221 C32.29467286 143.78932379 29.58594866 131.61084395 26.95108032 119.41241455 C24.62083252 108.64160358 22.09505591 97.92722925 19.48388672 87.22143555 C15.24299711 69.83378814 11.40930795 52.36002268 7.60131836 34.87353516 C5.59411984 25.66461105 3.5388642 16.46758003 1.421875 7.28320312 C0 1.09756324 0 1.09756324 0 0 Z " fill="#18306C" transform="translate(470,1227)"/>
<path d="M0 0 C39.93 0 79.86 0 121 0 C121 123.75 121 247.5 121 375 C124.96 375 128.92 375 133 375 C133.66 373.68 134.32 372.36 135 371 C136.47096393 368.9887397 137.96118965 367.02013029 139.5 365.0625 C140.40634015 363.89720553 141.31258758 362.73183894 142.21875 361.56640625 C142.68152344 360.97359863 143.14429687 360.38079102 143.62109375 359.77001953 C145.76068874 357.02354933 147.87984907 354.26148819 150 351.5 C150.83322305 350.41658184 151.66655671 349.33324874 152.5 348.25 C152.9125 347.71375 153.325 347.1775 153.75 346.625 C187.5 302.74999999 187.5 302.74999999 188.74926758 301.12597656 C189.58507376 300.03941221 190.42084835 298.95282355 191.2565918 297.86621094 C193.30183636 295.20711452 195.34769991 292.5485006 197.39453125 289.890625 C202.1076 283.76896543 206.80874598 277.63839588 211.5 271.5 C216.98562442 264.32218908 222.48796751 257.15754953 228 250 C229.66695292 247.83355349 231.33347413 245.66677503 233 243.5 C233.83332547 242.41666062 234.6666588 241.33332728 235.5 240.25 C235.9125 239.71375 236.325 239.1775 236.75 238.625 C250.5 220.75 250.5 220.75 251.75170898 219.12280273 C252.57937721 218.04681785 253.40701428 216.97080901 254.23461914 215.89477539 C256.40436481 213.07380651 258.57475903 210.25333975 260.74609375 207.43359375 C261.19662109 206.84835937 261.64714844 206.263125 262.11132812 205.66015625 C263.36442113 204.0324272 264.61775014 202.40487984 265.87109375 200.77734375 C267.9495723 198.16386665 267.9495723 198.16386665 269.31866169 195.85647964 C271 194 271 194 273.29008007 193.50780869 C274.19435899 193.51149586 275.09863791 193.51518303 276.03031921 193.51898193 C277.58891663 193.51073395 277.58891663 193.51073395 279.17900085 193.50231934 C280.31835587 193.51670044 281.45771088 193.53108154 282.6315918 193.54589844 C283.83171906 193.54531433 285.03184631 193.54473022 286.26834106 193.54412842 C289.55977346 193.54643944 292.85020499 193.56651212 296.14146018 193.59442425 C299.58075248 193.61941261 303.02005781 193.62177785 306.45942688 193.62652588 C312.97245217 193.63896329 319.4852092 193.67179496 325.99811631 193.71192384 C333.41275901 193.75661798 340.82741445 193.7786226 348.24215829 193.79870558 C363.4949276 193.84052716 378.74742923 193.91089375 394 194 C394.06575013 195.74924792 394.11252944 197.4992153 394.15136719 199.24926758 C394.17946472 200.22366287 394.20756226 201.19805817 394.23651123 202.20198059 C393.84301987 206.85713573 391.35230736 209.39342315 388.25 212.6875 C387.04654008 214.06123284 385.84609247 215.43760958 384.6484375 216.81640625 C383.73143066 217.8530542 383.73143066 217.8530542 382.79589844 218.91064453 C379.98000312 222.18666848 377.43053669 225.64459035 374.875 229.125 C370.31557462 235.27137895 365.64728614 241.31650784 360.90234375 247.3203125 C357.64185178 251.44629233 354.41392051 255.59735356 351.1875 259.75 C350.30843994 260.88127319 350.30843994 260.88127319 349.41162109 262.03540039 C348.21298325 263.57807051 347.01441611 265.12079557 345.81591797 266.66357422 C343.99442692 269.00717053 342.17131223 271.34949427 340.34765625 273.69140625 C335.21598719 280.28223556 330.08731717 286.87485003 325 293.5 C318.10039094 302.4852752 311.12848881 311.41442988 304.16796875 320.35253906 C297.6302988 328.74861519 291.10482364 337.1529271 284.625 345.59375 C280.82900357 350.52854536 276.99701961 355.43545131 273.171875 360.34765625 C268.96610519 365.75115616 264.785492 371.17300633 260.6171875 376.60546875 C258.65385612 379.15810607 256.67698793 381.69986016 254.6953125 384.23828125 C247.01570807 394.07572099 239.44871874 403.98652096 232 414 C235.04100263 419.60731216 238.55300574 424.64958344 242.375 429.75 C243.63158072 431.44135402 244.88808911 433.13276178 246.14453125 434.82421875 C246.78471191 435.68321777 247.42489258 436.5422168 248.08447266 437.42724609 C251.08945917 441.46325781 254.07702652 445.51204286 257.0625 449.5625 C257.64177246 450.34786133 258.22104492 451.13322266 258.81787109 451.94238281 C263.28691601 458.01010031 267.7032188 464.11461307 272.10571289 470.23071289 C276.0339888 475.68106937 280.00712036 481.09683174 284 486.5 C289.08205078 493.3770356 294.11002797 500.29033083 299.10546875 507.23046875 C303.03392016 512.68083838 307.00705268 518.09674016 311 523.5 C316.08205078 530.3770356 321.11002797 537.29033083 326.10546875 544.23046875 C330.03392016 549.68083838 334.00705268 555.09674016 338 560.5 C343.08205078 567.3770356 348.11002797 574.29033083 353.10546875 581.23046875 C357.03392016 586.68083838 361.00705268 592.09674016 365 597.5 C370.08205078 604.3770356 375.11002797 611.29033083 380.10546875 618.23046875 C384.60474965 624.47281247 389.16671173 630.66745216 393.7409668 636.85498047 C398.54431861 643.36057275 403.28620807 649.90918291 408.00195312 656.47851562 C408.51306641 657.18943359 409.02417969 657.90035156 409.55078125 658.6328125 C410.00106689 659.26074707 410.45135254 659.88868164 410.9152832 660.53564453 C411.92553162 661.97463407 411.92553162 661.97463407 413 663 C413.07244053 665.01964199 413.08377188 667.04167124 413.0625 669.0625 C413.05347656 670.16722656 413.04445313 671.27195312 413.03515625 672.41015625 C413.01775391 673.69212891 413.01775391 673.69212891 413 675 C396.5535324 675.44535671 380.10904098 675.77959858 363.65798759 675.98443127 C356.01781674 676.08210357 348.38140688 676.21503323 340.74365234 676.43334961 C334.08022748 676.62372384 327.41952593 676.7455251 320.75345719 676.7876814 C317.22730363 676.81230707 313.70893359 676.86938067 310.18529892 677.00887108 C288.85669414 677.82085931 288.85669414 677.82085931 282.47367096 673.15219498 C278.14849014 668.72729002 275.09836346 663.75401754 272.25281143 658.29107094 C270.44943196 654.9931522 268.23939759 652.23069507 265.875 649.3125 C262.33165268 644.73951117 258.83778349 640.13425531 255.375 635.5 C250.66559386 629.19775166 245.90377127 622.93727788 241.125 616.6875 C235.43389281 609.23957862 229.83354218 601.73244496 224.29394531 594.17138672 C219.21814313 587.25938075 214.02866097 580.43744059 208.8203125 573.625 C204.3710172 567.80470092 199.958072 561.95928117 195.57324219 556.09033203 C191.46063099 550.59443813 187.29409476 545.14061253 183.125 539.6875 C177.43394071 532.23954172 171.83354281 524.73244581 166.29394531 517.17138672 C161.22637457 510.27058996 156.06918834 503.43978775 150.82910156 496.66894531 C147.6674238 492.57275123 144.5991995 488.46793556 141.7421875 484.15234375 C141.23316895 483.40621826 140.72415039 482.66009277 140.19970703 481.89135742 C139.2700876 480.51821966 138.36944711 479.12474189 137.50732422 477.70825195 C136.10663939 475.51453577 136.10663939 475.51453577 133 473 C129.04 472.67 125.08 472.34 121 472 C121 538.99 121 605.98 121 675 C81.07 675 41.14 675 0 675 C0 452.25 0 229.5 0 0 Z " fill="#18306C" transform="translate(2179,1190)"/>
<path d="M0 0 C39.93 0 79.86 0 121 0 C121 123.42 121 246.84 121 374 C132.16071015 374.23057317 132.16071015 374.23057317 136.2265625 370.296875 C137.06304519 369.14046796 137.86185587 367.95606449 138.625 366.75 C139.53231589 365.46467699 140.43987332 364.17952445 141.34765625 362.89453125 C141.78867676 362.24178223 142.22969727 361.5890332 142.68408203 360.91650391 C144.68986529 357.99527968 146.87767115 355.22565997 149.0625 352.4375 C149.88805655 351.36430903 150.71227752 350.29008933 151.53515625 349.21484375 C154.01956719 345.97357934 156.5093802 342.73649463 159 339.5 C159.83335693 338.41668482 160.66669027 337.33335149 161.5 336.25 C196.5 290.75 196.5 290.75 197.74926758 289.12597656 C198.58507376 288.03941221 199.42084835 286.95282355 200.2565918 285.86621094 C202.30183636 283.20711452 204.34769991 280.5485006 206.39453125 277.890625 C211.1076 271.76896543 215.80874598 265.63839588 220.5 259.5 C225.98562442 252.32218908 231.48796751 245.15754953 237 238 C238.66695292 235.83355349 240.33347413 233.66677503 242 231.5 C242.83332547 230.41666062 243.6666588 229.33332728 244.5 228.25 C244.9125 227.71375 245.325 227.1775 245.75 226.625 C247 225 248.25 223.375 249.5 221.75 C249.9129834 221.21310547 250.3259668 220.67621094 250.75146484 220.12304688 C251.57985237 219.04617549 252.40830228 217.96935211 253.23681641 216.89257812 C255.39635041 214.0857793 257.55460149 211.27800665 259.7109375 208.46875 C260.15695312 207.88802734 260.60296875 207.30730469 261.0625 206.70898438 C262.2998068 205.09790782 263.53663757 203.48646571 264.7734375 201.875 C265.50820312 200.92625 266.24296875 199.9775 267 199 C267.46367981 198.12741043 267.92735962 197.25482086 268.40509033 196.35578918 C272.62852696 192.52154152 277.24323916 193.34529138 282.74511719 193.43237305 C283.94539047 193.43164291 285.14566376 193.43091278 286.38230896 193.43016052 C289.66958339 193.43304616 292.95579206 193.45811056 296.24285412 193.49303031 C299.67945405 193.5242981 303.11607518 193.52722484 306.55279541 193.53315735 C313.0587772 193.54869472 319.56433863 193.58972116 326.07013535 193.6399048 C333.47752469 193.69580206 340.88493415 193.72328563 348.2924819 193.74838197 C363.52856467 193.80063758 378.76422812 193.88857712 394 194 C394.06394443 195.58149742 394.10930893 197.16375231 394.14697266 198.74609375 C394.17425446 199.6270874 394.20153625 200.50808105 394.22964478 201.41577148 C393.8291551 205.92254431 391.24136426 208.67026536 388.375 212 C387.17817151 213.47378465 385.98156446 214.94774915 384.78515625 216.421875 C384.16141113 217.17275391 383.53766602 217.92363281 382.89501953 218.69726562 C379.78116723 222.48106553 376.80593992 226.37080509 373.8125 230.25 C372.63221566 231.76617427 371.45124121 233.2818116 370.26953125 234.796875 C367.49926659 238.35419206 364.7453425 241.92341632 362 245.5 C355.10039094 254.4852752 348.12848881 263.41442988 341.16796875 272.35253906 C332.55907251 283.40698713 332.55907251 283.40698713 324 294.5 C317.10039094 303.4852752 310.12848881 312.41442988 303.16796875 321.35253906 C296.6302988 329.74861519 290.10482364 338.1529271 283.625 346.59375 C279.82900357 351.52854536 275.99701961 356.43545131 272.171875 361.34765625 C268.76757571 365.72144077 265.37502406 370.10358707 262 374.5 C258.63767563 378.87819906 255.26301223 383.24643217 251.87524414 387.60498047 C250.67371976 389.15102275 249.47366866 390.69821122 248.27514648 392.24658203 C245.4346833 395.90859576 242.5710936 399.54332302 239.625 403.12109375 C238.84757446 404.07544312 238.84757446 404.07544312 238.05444336 405.04907227 C237.08406955 406.23667261 236.10356959 407.41609463 235.11157227 408.58569336 C233.64917892 410.32582374 233.64917892 410.32582374 232 413 C232.37446167 416.12456146 233.60746829 418.15604787 235.44921875 420.66015625 C235.96025146 421.36132568 236.47128418 422.06249512 236.99780273 422.78491211 C237.83420288 423.91231812 237.83420288 423.91231812 238.6875 425.0625 C239.26765869 425.85470947 239.84781738 426.64691895 240.44555664 427.46313477 C242.2910031 429.97992272 244.14511473 432.49016312 246 435 C247.1619191 436.58039051 248.32338655 438.16111319 249.484375 439.7421875 C252.98182048 444.50053587 256.48998067 449.25092255 260 454 C267.42059673 464.0401124 274.81196039 474.09797508 282.10571289 484.23071289 C286.0339888 489.68106937 290.00712036 495.09683174 294 500.5 C299.08205078 507.3770356 304.11002797 514.29033083 309.10546875 521.23046875 C313.03392016 526.68083838 317.00705268 532.09674016 321 537.5 C326.08205078 544.3770356 331.11002797 551.29033083 336.10546875 558.23046875 C340.03392016 563.68083838 344.00705268 569.09674016 348 574.5 C353.08205078 581.3770356 358.11002797 588.29033083 363.10546875 595.23046875 C367.03392016 600.68083838 371.00705268 606.09674016 375 611.5 C379.53750927 617.64016154 384.03975674 623.80348172 388.5 630 C398.99042551 645.30675175 398.99042551 645.30675175 410.57699585 659.72891235 C412.45026551 662.71861521 412.30152303 664.75329375 412.1875 668.25 C412.16042969 669.32765625 412.13335938 670.4053125 412.10546875 671.515625 C412.05326172 672.74539063 412.05326172 672.74539063 412 674 C395.5535324 674.44535671 379.10904098 674.77959858 362.65798759 674.98443127 C355.01781674 675.08210357 347.38140688 675.21503323 339.74365234 675.43334961 C333.08022748 675.62372384 326.41952593 675.7455251 319.75345719 675.7876814 C316.22730363 675.81230707 312.70893359 675.86938067 309.18529892 676.00887108 C287.84496268 676.82146553 287.84496268 676.82146553 281.46045303 672.13645935 C277.12171346 667.69261231 274.03475149 662.70370935 271.18748283 657.21340561 C269.6242809 654.29967934 267.76490254 651.86247727 265.6953125 649.2890625 C265.10089355 648.51095215 264.50647461 647.7328418 263.89404297 646.93115234 C263.31025879 646.17012207 262.72647461 645.4090918 262.125 644.625 C261.46773926 643.76471191 260.81047852 642.90442383 260.13330078 642.01806641 C258.09040477 639.34419752 256.04550194 636.67187574 254 634 C245.67074178 623.12015553 237.38565254 612.21764548 229.28857422 601.16357422 C224.26957443 594.32722797 219.12907696 587.58763488 213.97412109 580.85351562 C209.4614174 574.94748867 205.01978752 568.99420594 200.625 563 C195.65413204 556.22204454 190.59840546 549.52697178 185.45214844 542.88085938 C176.60220804 531.41819279 167.86563214 519.87565886 159.30981445 508.19189453 C154.10204782 501.09721288 148.77314184 494.09761434 143.41601562 487.11523438 C142.78244141 486.28830078 142.14886719 485.46136719 141.49609375 484.609375 C140.88362793 483.82626953 140.27116211 483.04316406 139.64013672 482.23632812 C138 480 138 480 136.84814453 477.87304688 C135.70840198 475.62732311 135.70840198 475.62732311 133 473 C129.04 472.67 125.08 472.34 121 472 C121 538.99 121 605.98 121 675 C81.07 675 41.14 675 0 675 C0 452.25 0 229.5 0 0 Z " fill="#18306C" transform="translate(2662,1190)"/>
<path d="M0 0 C20.4690725 18.10002491 34.32222874 41.72279648 41.81787109 67.90991211 C42.44452122 70.08642205 43.09080369 72.25741378 43.76025391 74.42114258 C46.35597426 82.98853845 47.8980922 91.39190924 48.97265625 100.26953125 C49.21918945 102.11611328 49.21918945 102.11611328 49.47070312 104 C52.13836957 125.1901278 51.93131408 146.55676704 51.90122187 167.87673163 C51.89683628 171.78776517 51.89836944 175.69879745 51.89912415 179.60983276 C51.89964432 186.35932186 51.89655094 193.10880117 51.89088631 199.85828781 C51.88270196 209.61648516 51.88014904 219.37467785 51.87889832 229.13287826 C51.8767186 244.97123792 51.87008803 260.80959238 51.8605957 276.64794922 C51.85139348 292.01839167 51.84432645 307.38883269 51.84008789 322.75927734 C51.83969381 324.18436535 51.83969381 324.18436535 51.83929176 325.638243 C51.83798657 330.40519184 51.83672289 335.17214068 51.83547986 339.93908954 C51.82514093 379.38257473 51.80672094 418.82605029 51.78515625 458.26953125 C11.85515625 458.26953125 -28.07484375 458.26953125 -69.21484375 458.26953125 C-69.22942627 448.79645264 -69.24400879 439.32337402 -69.2590332 429.56323242 C-69.30786576 399.19884873 -69.37129559 368.83451106 -69.44383003 338.4701751 C-69.45509722 333.74793926 -69.46623583 329.02570313 -69.47729492 324.3034668 C-69.48060045 322.89339124 -69.48060045 322.89339124 -69.48397275 321.45482931 C-69.51927524 306.26486992 -69.54417907 291.07491057 -69.56519077 275.88492545 C-69.58700912 260.28045981 -69.62011644 244.67604707 -69.66354531 229.07162648 C-69.68995842 219.45500213 -69.70772978 209.8384436 -69.71418979 200.22178481 C-69.7194755 193.61328202 -69.73579812 187.00486181 -69.76050941 180.39640339 C-69.77441631 176.59258392 -69.78373629 172.78891189 -69.77985191 168.98506546 C-69.6891227 140.91552136 -69.6891227 140.91552136 -76.02734375 113.70703125 C-76.28596191 112.96654541 -76.54458008 112.22605957 -76.81103516 111.46313477 C-82.35730636 96.15629967 -91.97751538 85.28854292 -106.61328125 78.08984375 C-135.02517833 65.91331643 -167.77532655 67.68887068 -196.24951172 78.47998047 C-220.90934281 88.38679957 -236.93094267 108.59519297 -247.10351562 132.34423828 C-252.35671199 145.10416734 -255.13544328 157.72732483 -256.83984375 171.39453125 C-256.96319092 172.37671631 -257.08653809 173.35890137 -257.21362305 174.37084961 C-259.31628798 192.43921676 -259.37550254 210.57822757 -259.42016602 228.74291992 C-259.42976759 231.24815524 -259.43977892 233.75338902 -259.45016479 236.25862122 C-259.47144944 241.61179771 -259.48993947 246.96497217 -259.50576973 252.31816673 C-259.52866151 260.05760746 -259.55677539 267.79702261 -259.58608901 275.53644136 C-259.6335312 288.09874573 -259.67685724 300.66106069 -259.7175293 313.22338867 C-259.75700417 325.41317567 -259.79846892 337.60295329 -259.8425293 349.79272461 C-259.8452788 350.55407843 -259.84802831 351.31543224 -259.85086113 352.09985739 C-259.8723853 358.0557739 -259.8940234 364.01168999 -259.91569746 369.96760595 C-260.02156787 399.06822864 -260.11751714 428.1688763 -260.21484375 457.26953125 C-299.81484375 457.26953125 -339.41484375 457.26953125 -380.21484375 457.26953125 C-380.21484375 298.53953125 -380.21484375 139.80953125 -380.21484375 -23.73046875 C-341.93484375 -23.73046875 -303.65484375 -23.73046875 -264.21484375 -23.73046875 C-263.88484375 -0.30046875 -263.55484375 23.12953125 -263.21484375 47.26953125 C-260.57484375 47.59953125 -257.93484375 47.92953125 -255.21484375 48.26953125 C-254.60898438 47.26535156 -254.003125 46.26117187 -253.37890625 45.2265625 C-230.43801951 7.58757836 -198.63182039 -17.214153 -155.77490234 -28.11669922 C-106.11005184 -40.02375951 -40.07203816 -34.50815722 0 0 Z " fill="#18306B" transform="translate(1996.21484375,1406.73046875)"/>
<path d="M0 0 C50.49 0 100.98 0 153 0 C162.15520193 22.88800483 162.15520193 22.88800483 164.8046875 30.24609375 C165.46336755 32.05455852 166.12214531 33.8629877 166.78100586 35.67138672 C167.12001923 36.60529236 167.45903259 37.539198 167.80831909 38.50140381 C175.6871467 60.18829775 183.78518032 81.78992376 191.9375 103.375 C194.16575216 109.27589537 196.39366319 115.17691945 198.62109375 121.078125 C198.89307587 121.79863729 199.16505798 122.51914959 199.44528198 123.26149559 C206.71422743 142.52067134 213.90291751 161.80962902 221.06747437 181.10786438 C222.90444767 186.05538567 224.74597687 191.00114473 226.59555054 195.94396973 C227.3498861 197.96014793 228.10294656 199.97679672 228.85546875 201.99365234 C229.70591938 204.27222405 230.55856192 206.54997967 231.4140625 208.82666016 C231.76597656 209.77202637 232.11789062 210.71739258 232.48046875 211.69140625 C232.77848389 212.48748291 233.07649902 213.28355957 233.38354492 214.10375977 C234 216 234 216 234 218 C234.66 218 235.32 218 236 218 C236.13199295 217.2665033 236.2639859 216.53300659 236.39997864 215.77728271 C236.9493833 213.23428646 237.66312621 210.98478828 238.6003418 208.56347656 C239.09568169 207.27491005 239.09568169 207.27491005 239.60102844 205.96031189 C240.14463264 204.56456688 240.14463264 204.56456688 240.69921875 203.140625 C241.08148117 202.14958267 241.46374359 201.15854034 241.85758972 200.13746643 C243.13045047 196.84017139 244.4089987 193.54511162 245.6875 190.25 C246.59104047 187.91250149 247.49419065 185.57485209 248.39697266 183.23706055 C250.29853849 178.31462195 252.20230054 173.39304183 254.10791016 168.47216797 C256.89414273 161.27664818 259.67268997 154.07817531 262.44921875 146.87890625 C262.89597961 145.72074402 263.34274048 144.56258179 263.80303955 143.36932373 C265.61623604 138.66885816 267.42931106 133.96834586 269.24188232 129.26763916 C273.96746195 117.01323406 278.69917421 104.76136035 283.46661377 92.5231781 C285.20227401 88.06740142 286.93365079 83.60996363 288.66413116 79.15217304 C289.8318525 76.14502284 291.00259495 73.1391069 292.17791748 70.13491821 C296.97761745 57.86510724 301.62219898 45.55316419 305.88671875 33.0859375 C306.24329056 32.06843414 306.59986237 31.05093079 306.96723938 30.00259399 C310.31430451 20.01125578 311.88004359 10.59978204 314 0 C362.84 0 411.68 0 462 0 C462 5.94 462 11.88 462 18 C460.43390761 19.56609239 458.71861665 19.36584373 456.546875 19.61328125 C455.62318115 19.72470459 454.6994873 19.83612793 453.74780273 19.95092773 C452.75852783 20.07024658 451.76925293 20.18956543 450.75 20.3125 C434.69755811 22.13346053 434.69755811 22.13346053 421 30 C416.70958123 37.30960235 415.70512774 43.7299033 415.73257446 52.03131104 C415.72577779 53.54137352 415.72577779 53.54137352 415.71884382 55.08194232 C415.70618911 58.45343797 415.7078209 61.8247723 415.70947266 65.19628906 C415.70348805 67.6144176 415.69668267 70.03254423 415.68911743 72.45066833 C415.67327844 78.33672648 415.66700869 84.22274685 415.66589268 90.10882196 C415.66494125 94.8954984 415.66082622 99.68216166 415.65449142 104.46883392 C415.63688321 118.05110461 415.62765178 131.63334373 415.62915237 145.21562591 C415.62923228 145.94739417 415.6293122 146.67916242 415.62939453 147.43310547 C415.62951717 148.53210407 415.62951717 148.53210407 415.62964229 149.65330467 C415.63045486 161.52199798 415.61132359 173.39056428 415.5831178 185.25922087 C415.55435992 197.456822 415.54057913 209.65436126 415.54230535 221.85199714 C415.5429683 228.69561869 415.53751806 235.53910712 415.51594925 242.38269806 C415.49578718 248.82103813 415.49644085 255.25917 415.51098251 261.69752693 C415.51307209 264.0573448 415.50836094 266.41718023 415.4962616 268.776968 C415.48078467 272.00522534 415.49013434 275.23251727 415.50552368 278.46075439 C415.49009299 279.85251904 415.49009299 279.85251904 415.47435057 281.27240014 C415.555362 288.99348106 417.44594802 295.73648914 422.25 301.875 C433.3460923 310.44925314 448.46884708 312.15484278 462 314 C462 320.27 462 326.54 462 333 C402.6 333 343.2 333 282 333 C282 326.73 282 320.46 282 314 C283.95421875 313.76925781 285.9084375 313.53851562 287.921875 313.30078125 C289.85839091 313.05697529 291.79489221 312.81303635 293.73095703 312.56567383 C295.69809067 312.31900907 297.66740394 312.08992698 299.63671875 311.86132812 C309.18145605 310.62584182 318.17476823 308.61892382 326 302.75 C332.13394141 294.31583057 333.15122167 286.09093712 333.12025452 275.94572449 C333.12110894 274.92464783 333.12196337 273.90357116 333.12284368 272.85155278 C333.12449238 269.42600113 333.11898705 266.00049832 333.11352539 262.57495117 C333.11324336 260.1210429 333.11340156 257.66713454 333.1139679 255.21322632 C333.1141957 249.92799945 333.11135704 244.64278782 333.10573006 239.35756493 C333.09759971 231.71604083 333.09499826 224.07452271 333.09374207 216.43299476 C333.09155396 204.03483492 333.08490042 191.63668166 333.07543945 179.23852539 C333.06625909 167.19555698 333.05918131 155.15259035 333.05493164 143.10961914 C333.05466892 142.36717086 333.05440619 141.62472258 333.05413551 140.85977586 C333.05283046 137.1350953 333.05156676 133.41041473 333.05032361 129.68573415 C333.03995852 98.79048465 333.02227237 67.89524332 333 37 C332.56943707 38.12069098 332.13887415 39.24138197 331.69526386 40.39603329 C330.0776857 44.60602076 328.45956467 48.8157994 326.84129047 53.02551937 C326.14471516 54.83778431 325.44828158 56.65010374 324.75199986 58.4624815 C320.10456532 70.55910774 315.42818323 82.64247462 310.63491821 94.68222046 C308.87394945 99.1064524 307.12096454 103.53385094 305.3671875 107.9609375 C305.00641617 108.87133286 304.64564484 109.78172821 304.27394104 110.7197113 C300.25684261 120.86392251 296.28348357 131.02516851 292.3125 141.1875 C285.64138366 158.25645712 278.95288152 175.3184907 272.25 192.375 C271.79094269 193.54322296 271.33188538 194.71144592 270.85891724 195.91506958 C267.10099653 205.47818368 263.34226887 215.04098055 259.58349609 224.60375977 C256.76768901 231.76760424 253.95214349 238.9315514 251.13696289 246.09564209 C250.21697518 248.43670394 249.29689153 250.7777281 248.37670898 253.11871338 C243.46758603 265.60804798 238.56645976 278.10041021 233.6875 290.6015625 C233.26607727 291.68084015 232.84465454 292.7601178 232.41046143 293.87210083 C230.42328143 298.96150093 228.43788337 304.05158006 226.45605469 309.14306641 C225.75723911 310.93394957 225.05835033 312.72480418 224.359375 314.515625 C224.04589111 315.32319244 223.73240723 316.13075989 223.40942383 316.96279907 C223.1193042 317.70500702 222.82918457 318.44721497 222.53027344 319.21191406 C222.2813031 319.8513092 222.03233276 320.49070435 221.77581787 321.1494751 C220.94124229 323.14015223 219.96533019 325.06933963 219 327 C209.1 327 199.2 327 189 327 C187.535625 322.524375 186.07125 318.04875 184.5625 313.4375 C172.67220924 277.54844043 159.26319919 242.16494765 146.12060547 206.72070312 C142.59505751 197.21192176 139.07855671 187.69979416 135.5625 178.1875 C135.21215698 177.23983765 134.86181396 176.29217529 134.50085449 175.3157959 C129.06590945 160.61295741 123.65224007 145.90238386 118.25 131.1875 C111.86817922 113.80542156 105.48263095 96.42472442 99.08557129 79.04824829 C98.16398266 76.54481073 97.24293419 74.04117647 96.32214355 71.53744507 C95.03208429 68.0298339 93.74079789 64.52267675 92.44921875 61.015625 C92.07284775 59.99155045 91.69647675 58.96747589 91.30870056 57.91236877 C89.36411502 52.63642199 87.38373658 47.37620835 85.3618927 42.1293335 C84.91776944 40.97628597 84.47364618 39.82323845 84.01606464 38.63525009 C83.68076331 37.76561756 83.34546198 36.89598503 83 36 C82.95313373 63.65255449 82.91793981 91.30510298 82.89637566 118.95768929 C82.8860938 131.79928038 82.87209303 144.64084669 82.84912109 157.48242188 C82.82909209 168.68427068 82.81626115 179.88610153 82.81182301 191.08796775 C82.80923163 197.01093959 82.80320631 202.93386007 82.78853989 208.85681534 C82.77480514 214.44966927 82.77080891 220.04245147 82.77378464 225.63532066 C82.77324149 227.67080642 82.76935988 229.70629498 82.76158905 231.74176598 C82.72385666 242.1497573 82.9705551 252.46179492 83.87356567 262.83493042 C83.94906202 263.72428036 84.02455837 264.6136303 84.10234249 265.52993023 C85.30535075 277.98810689 88.34208055 289.95405252 97.80859375 298.6640625 C106.35339769 305.64432487 117.15595092 308.0306149 127.625 310.75 C128.81996094 311.06582031 130.01492188 311.38164062 131.24609375 311.70703125 C134.162582 312.47698415 137.08108783 313.2392879 140 314 C140 320.27 140 326.54 140 333 C92.81 333 45.62 333 -3 333 C-3 326.73 -3 320.46 -3 314 C0.09375 313.566875 3.1875 313.13375 6.375 312.6875 C16.88502478 311.15022783 16.88502478 311.15022783 27 308 C27.8353125 307.67515625 28.670625 307.3503125 29.53125 307.015625 C37.73028862 303.41002368 43.60724902 297.70748046 47.3125 289.5 C53.50348442 271.85843377 53.15034878 252.45359574 53.16113281 234.0078125 C53.16577248 232.1368602 53.17079865 230.26590882 53.17617798 228.3949585 C53.18918596 223.35368631 53.195723 218.31242736 53.20018864 213.27114105 C53.20313583 210.11339647 53.20724341 206.95565539 53.21169281 203.7979126 C53.22533179 193.89341946 53.23501824 183.98893447 53.2388947 174.0844326 C53.2433788 162.6947588 53.26095824 151.30520479 53.2898953 139.9155674 C53.31156217 131.07776969 53.32160151 122.24000559 53.32293582 113.40218163 C53.32397946 108.13804873 53.32979389 102.874029 53.34775543 97.60992432 C53.36432503 92.65871557 53.36634881 87.70770408 53.35761642 82.75647736 C53.35685102 80.94982624 53.36112239 79.14316409 53.37107468 77.33654022 C53.45144718 61.82573179 52.85584127 45.44347602 41.9375 33.25 C30.70817961 22.9423085 14.70338364 19.64630258 0 19 C0 12.73 0 6.46 0 0 Z " fill="#010101" transform="translate(1561,1914)"/>
<path d="M0 0 C11.22 0 22.44 0 34 0 C34.63244995 9.4867493 35.16357799 18.82342963 35.26367188 28.30737305 C35.28032898 29.54903292 35.29698608 30.79069279 35.31414795 32.06997871 C35.34997001 34.75050653 35.3844924 37.4310137 35.41685486 40.1115818 C35.50638649 47.4773691 35.61325489 54.8429234 35.71875 62.20849609 C35.72964126 62.97633521 35.74053251 63.74417433 35.75175381 64.5352813 C36.00360817 82.2189832 36.35117489 99.90040633 36.71875 117.58203125 C36.75068276 119.12299472 36.78261432 120.66395821 36.81454468 122.20492172 C36.9915447 130.73325647 37.17102712 139.26153763 37.35163212 147.78979671 C37.51799233 155.65034054 37.68175296 163.51093801 37.84548938 171.37153685 C38.35930685 196.02495692 38.87454551 220.67830769 39.43772888 245.33065796 C39.84420694 263.12441297 40.17248088 280.91546462 40.38842773 298.71270752 C40.75965391 328.78156596 41.31954944 358.84615238 41.93437576 388.910923 C41.99894748 392.07345058 42.0629911 395.23598848 42.12692261 398.39852905 C42.22975692 403.47511617 42.33431102 408.5516654 42.44013786 413.62819099 C42.4785764 415.47724707 42.51666814 417.32631041 42.5543232 419.17538261 C42.79148741 430.77609556 43.09117772 442.37436805 43.42245567 453.97272801 C43.92281937 471.51864748 44.3138933 489.06468903 44.64150763 506.61461353 C44.71482144 510.52497673 44.78989412 514.43530633 44.86465454 518.34564209 C45.00839416 525.88094776 45.15026025 533.41628753 45.29132533 540.95164371 C45.40603578 547.07788235 45.52152972 553.20410584 45.63742065 559.33032227 C46.54764153 607.47125018 47.40172127 655.61272627 48.17984009 703.75598145 C48.60413184 730.00478461 49.04908094 756.25284403 49.56640625 782.5 C49.589965 783.69540909 49.61352375 784.89081818 49.6377964 786.12245178 C49.86283199 797.51295375 50.09152625 808.90337706 50.32613659 820.29368591 C50.40973066 824.36109879 50.49221345 828.42853385 50.57458305 832.49597168 C50.63048846 835.23009003 50.68823349 837.96416495 50.74610901 840.69824219 C50.78021133 842.37369608 50.81422811 844.04915171 50.84814453 845.72460938 C50.86370927 846.43265465 50.87927401 847.14069992 50.8953104 847.87020111 C51.04741555 855.58318377 51 863.27991106 51 871 C434.13 871 817.26 871 1212 871 C1212 882.22 1212 893.44 1212 905 C817.65 905 423.3 905 17 905 C13.55959974 754.76918882 13.55959974 754.76918882 12.46160889 686.21038818 C12.2388107 672.30509968 12.01090653 658.39989449 11.77917635 644.49475211 C11.69428428 639.39010756 11.61181648 634.28543255 11.53150761 629.18071395 C11.26977103 612.64132309 10.90767636 596.11225498 10.35886192 579.57984829 C9.95457601 567.18285251 9.73194211 554.78617924 9.55444336 542.38410568 C9.49780897 538.43308291 9.43781371 534.48211773 9.37695312 530.53115845 C9.23748629 521.43993305 9.10290855 512.34863689 8.96875 503.25733185 C8.84523289 494.88829398 8.72051947 486.51927836 8.59148407 478.15032351 C8.52219925 473.64569624 8.45695727 469.14102164 8.39257812 464.63632202 C8.1865209 450.87345478 7.83422348 437.12311714 7.3516922 423.3671236 C7.03962216 414.43254737 6.81885882 405.50581123 6.71875 396.56640625 C6.70084067 395.19255154 6.68259988 393.81870112 6.6640625 392.44485474 C6.62606209 389.60089743 6.58955083 386.75692782 6.55444336 383.91293335 C6.46137193 376.40798808 6.35643852 368.90320351 6.25 361.3984375 C6.23964218 360.6643762 6.22928436 359.9303149 6.21861267 359.17400932 C6.05969525 348.00919692 5.83025518 336.84860911 5.5 325.6875 C5.13718913 313.42190606 4.91557557 301.15638549 4.75 288.88671875 C4.734282 287.72821568 4.734282 287.72821568 4.71824646 286.54630852 C4.61244615 278.71273213 4.51096774 270.87911925 4.41920471 263.04536533 C4.38380113 260.06965715 4.34588224 257.09398354 4.30761719 254.11831093 C4.28280093 252.11724711 4.26140368 250.11614173 4.24023438 248.11503601 C4.12440461 239.1642975 3.84007305 230.22603823 3.51367188 221.28051758 C3.0218667 207.65284823 2.74570615 194.028715 2.55444336 180.39383888 C2.49805527 176.3811403 2.43799422 172.36851046 2.37695312 168.35588074 C2.23713897 159.12333266 2.10266956 149.89070861 1.96875 140.65807343 C1.84548596 132.16034811 1.72093047 123.66264719 1.59148407 115.16501349 C1.52184246 110.58090332 1.45674758 105.99674259 1.39257812 101.41255188 C1.20252294 88.53167895 0.87095689 75.66974717 0.33934116 62.79833889 C0.0248641 55.07587239 -0.13576103 47.37816965 -0.09765625 39.6484375 C-0.0962413 38.48663971 -0.09482635 37.32484192 -0.09336853 36.12783813 C-0.08792706 32.54352839 -0.07541065 28.9592897 -0.0625 25.375 C-0.05746433 22.89192801 -0.05290515 20.408855 -0.04882812 17.92578125 C-0.03887591 11.9504738 -0.0192752 5.97531301 0 0 Z " fill="#19306B" transform="translate(269,1219)"/>
<path d="M0 0 C1.01900391 -0.0309375 1.01900391 -0.0309375 2.05859375 -0.0625 C6.87932765 -0.1005334 6.87932765 -0.1005334 9.06014687 1.44171518 C10.84331037 3.8940556 10.74944467 5.49053435 10.74858761 8.51068211 C10.75557735 9.60775787 10.7625671 10.70483363 10.76976866 11.83515412 C10.7621926 13.04524311 10.75461655 14.2553321 10.74681091 15.50209045 C10.75063548 16.78391706 10.75446004 18.06574367 10.7584005 19.38641351 C10.76870313 22.95191113 10.7603519 26.51716234 10.74910367 30.08264816 C10.74027032 33.92537057 10.74874747 37.76805736 10.75531006 41.61077881 C10.76447869 48.27329308 10.76312834 54.93573853 10.75512505 61.59825325 C10.74390515 71.24207961 10.75292467 80.88580767 10.76768685 90.52962547 C10.79147748 106.18958911 10.8048268 121.84954065 10.80883789 137.50952148 C10.80908276 138.44724553 10.80932763 139.38496957 10.80957992 140.3511095 C10.81212421 150.80613541 10.81269356 161.26116039 10.81164551 171.71618652 C10.81131251 175.50341797 10.8110271 179.29064941 10.81079102 183.07788086 C10.81072823 184.01234226 10.81066544 184.94680367 10.81060075 185.90958209 C10.80999554 201.50166283 10.8248951 217.09368772 10.85162407 232.68574518 C10.86742101 242.30187619 10.86969567 251.91782678 10.85449005 261.53395968 C10.84501413 268.12835024 10.84979728 274.72263223 10.86570387 281.31701005 C10.87438743 285.11979627 10.87656488 288.92229386 10.86117744 292.72506523 C10.84460703 296.85327639 10.85901061 300.98081562 10.87620544 305.10902405 C10.86639867 306.30349799 10.85659189 307.49797193 10.84648794 308.72864205 C10.92009664 317.28274978 12.74021986 323.76111531 17.0625 331.125 C26.61667884 339.90451569 41.21478582 339.58671559 53.375 340.25 C53.375 346.19 53.375 352.13 53.375 358.25 C-10.49060172 362.27991214 -10.49060172 362.27991214 -35.5 363.5 C-36.72769608 363.56111969 -36.72769608 363.56111969 -37.98019409 363.62347412 C-45.00697693 363.97040277 -52.03573615 364.29004772 -59.0703125 364.421875 C-59.91352051 364.43831055 -60.75672852 364.45474609 -61.62548828 364.47167969 C-63.625 364.25 -63.625 364.25 -65.625 362.25 C-65.85205078 359.91162109 -65.85205078 359.91162109 -65.8203125 357.0234375 C-65.81064453 355.4765625 -65.81064453 355.4765625 -65.80078125 353.8984375 C-65.78402344 352.81820312 -65.76726563 351.73796875 -65.75 350.625 C-65.74097656 349.53703125 -65.73195313 348.4490625 -65.72265625 347.328125 C-65.69903409 344.63519848 -65.66609556 341.94270745 -65.625 339.25 C-69.01616082 341.16597648 -71.76114667 343.17904412 -74.5625 345.875 C-95.56378809 364.76229705 -120.74838572 371.4932051 -148.48974609 370.46923828 C-156.72957826 369.89305316 -164.68548583 368.27758397 -172.5 365.625 C-173.26320557 365.36630127 -174.02641113 365.10760254 -174.81274414 364.84106445 C-203.06963414 354.82450854 -222.09576975 331.90250168 -235.2890625 305.98046875 C-247.08877732 280.47493133 -251.41546107 244.54369788 -244.625 217.25 C-244.45258789 216.53779297 -244.28017578 215.82558594 -244.10253906 215.09179688 C-236.76232236 185.61040105 -218.78471958 158.8591131 -193.0078125 142.265625 C-191.89148437 141.60046875 -190.77515625 140.9353125 -189.625 140.25 C-189.00077148 139.87294922 -188.37654297 139.49589844 -187.73339844 139.10742188 C-161.24876717 123.33873999 -127.43861398 119.67291377 -97.375 126.203125 C-88.37988861 128.71426026 -79.71679133 131.64312924 -71.36889648 135.85595703 C-70.47774643 136.30472198 -69.58659637 136.75348694 -68.66844177 137.21585083 C-67.6569381 137.72775467 -67.6569381 137.72775467 -66.625 138.25 C-66.66312317 127.19222826 -66.72258138 116.13479335 -66.80890274 105.07728672 C-66.84832772 99.9422183 -66.88054064 94.80732009 -66.89599609 89.67211914 C-66.91119543 84.71170301 -66.9456992 79.75175497 -66.99330902 74.79154778 C-67.00808904 72.90387998 -67.01603907 71.01614534 -67.01688385 69.12841988 C-67.01926548 66.47386524 -67.04644006 63.82059177 -67.07910156 61.16625977 C-67.0740712 60.39445374 -67.06904083 59.62264771 -67.06385803 58.82745361 C-67.22113566 50.50745012 -70.69320879 43.2538408 -76.30078125 37.171875 C-85.76000388 29.35013125 -97.60610509 26.2044061 -109.5 24.625 C-110.47453125 24.4909375 -111.4490625 24.356875 -112.453125 24.21875 C-114.84305382 23.89072055 -117.23393746 23.56966077 -119.625 23.25 C-119.625 17.64 -119.625 12.03 -119.625 6.25 C-103.26236453 5.17036508 -86.90182152 4.16359073 -70.51953125 3.43359375 C-69.81684994 3.40226978 -69.11416862 3.37094582 -68.39019394 3.33867264 C-64.12372654 3.14943924 -59.85709685 2.96409166 -55.59039307 2.78027344 C-49.81224577 2.53127891 -44.03423235 2.27938149 -38.2563839 2.02354622 C-36.2842687 1.93698394 -34.31203504 1.85313363 -32.33979797 1.76939392 C-25.35033861 1.46197904 -18.38426752 1.04024916 -11.41157532 0.46455383 C-7.59994857 0.17107563 -3.82322774 0.0452453 0 0 Z " fill="#010101" transform="translate(2578.625,1883.75)"/>
<path d="M0 0 C39.6 0 79.2 0 120 0 C120 158.4 120 316.8 120 480 C80.4 480 40.8 480 0 480 C0 321.6 0 163.2 0 0 Z " fill="#18306B" transform="translate(1357,1384)"/>
<path d="M0 0 C0.75447418 0.00149048 1.50894836 0.00298096 2.2862854 0.0045166 C30.29829058 0.10333348 63.70379945 2.95699699 85.125 23.0625 C100.31229765 39.21259157 104.11387527 59.01165604 103.90917969 80.38452148 C103.89707545 82.35313705 103.88497913 84.32175268 103.87318087 86.29037011 C103.85981425 88.39008786 103.84407088 90.4897777 103.82790375 92.58947563 C103.79506436 96.98255892 103.77450982 101.37564736 103.75665283 105.76881409 C103.75356637 106.51300754 103.7504799 107.25720098 103.74729991 108.02394575 C103.74099304 109.54474061 103.73470328 111.06553554 103.72843027 112.58633053 C103.68555675 122.80060646 103.63360239 133.01470896 103.55273438 143.22875977 C103.49812788 150.13791338 103.46152207 157.04691166 103.44522786 163.95626503 C103.43589211 167.60417461 103.41750821 171.25152244 103.37691498 174.89922905 C103.33173533 178.97004115 103.32601965 183.04002187 103.32324219 187.11108398 C103.30369476 188.30464005 103.28414734 189.49819611 103.26400757 190.72792053 C103.30044924 198.24578984 104.47591529 204.08885241 108.875 210.3125 C115.45544167 216.73902441 122.03274304 217.20805339 130.9375 217.1875 C132.08927734 217.208125 133.24105469 217.22875 134.42773438 217.25 C137.24317888 217.29672937 140.05917096 217.30823036 142.875 217.3125 C142.875 223.2525 142.875 229.1925 142.875 235.3125 C124.17621131 242.73491994 107.36952464 246.66061824 87.1875 246.6875 C85.92252686 246.68935303 84.65755371 246.69120605 83.35424805 246.69311523 C76.30083846 246.60744629 69.71772048 246.03821652 62.875 244.3125 C61.59326904 243.99466553 61.59326904 243.99466553 60.28564453 243.67041016 C50.63472375 241.17188731 40.89174464 236.49946348 34.875 228.3125 C28.875 217.92583333 28.875 217.92583333 28.875 214.3125 C25.48383918 216.22847648 22.73885333 218.24154412 19.9375 220.9375 C-2.15744204 240.90015146 -32.18454827 248.91237055 -61.42919922 247.51953125 C-79.41389639 246.1383482 -96.52957093 237.46957214 -108.28515625 223.80078125 C-118.97895764 209.33803924 -121.19126477 191.57107062 -118.8203125 174.0625 C-116.27747203 160.36229831 -109.82037971 150.05811484 -100.125 140.3125 C-99.53332031 139.68601562 -98.94164063 139.05953125 -98.33203125 138.4140625 C-86.03998699 126.42050055 -66.90462471 121.71509475 -51.125 116.3125 C-50.27019043 116.01569336 -49.41538086 115.71888672 -48.53466797 115.41308594 C-47.74850098 115.14012695 -46.96233398 114.86716797 -46.15234375 114.5859375 C-45.48968506 114.35567871 -44.82702637 114.12541992 -44.14428711 113.88818359 C-38.46244363 111.97861442 -32.7759239 110.18076593 -26.98330688 108.63653564 C-16.23038271 105.76727907 -5.75243078 102.23004805 4.75 98.5625 C7.29787479 97.67747925 9.84628261 96.79403368 12.39529419 95.91229248 C13.96089581 95.37025812 15.52577945 94.82614391 17.08981323 94.27960205 C20.33017593 93.15368694 23.53911851 92.10958988 26.875 91.3125 C26.80517077 86.44142893 26.71677299 81.57114035 26.61254883 76.70068359 C26.57968389 75.05038277 26.55153812 73.39997987 26.52856445 71.74951172 C26.31063975 56.49478282 25.78386248 40.51795749 15.2109375 28.40625 C7.77223808 21.47705054 -1.70234915 19.95697756 -11.52734375 20.0234375 C-19.44083322 20.65926619 -26.38713697 23.23001007 -33.125 27.3125 C-33.785 27.3125 -34.445 27.3125 -35.125 27.3125 C-34.948479 27.92246826 -34.77195801 28.53243652 -34.59008789 29.16088867 C-33.78711934 31.93998896 -32.98728164 34.71998097 -32.1875 37.5 C-31.90970703 38.45970703 -31.63191406 39.41941406 -31.34570312 40.40820312 C-31.07822266 41.33955078 -30.81074219 42.27089844 -30.53515625 43.23046875 C-30.28902588 44.08406982 -30.04289551 44.9376709 -29.78930664 45.81713867 C-27.29539769 55.18510758 -26.23339623 65.62490125 -30.94140625 74.421875 C-35.91170594 82.3612316 -42.17113653 86.13574145 -51.14453125 88.43359375 C-57.08867462 89.67324183 -63.01229456 89.64241567 -69.0625 89.625 C-70.17818359 89.64111328 -71.29386719 89.65722656 -72.44335938 89.67382812 C-83.91806606 89.68055027 -92.82325049 87.54862303 -101.125 79.3125 C-108.38746586 70.13699436 -109.42405693 59.64193477 -108.125 48.3125 C-104.87698427 36.28222815 -93.55957176 26.36896837 -83.125 20.3125 C-70.37678385 13.35943364 -57.16324595 8.012904 -43.125 4.3125 C-42.48240234 4.13847656 -41.83980469 3.96445313 -41.17773438 3.78515625 C-27.72634418 0.45777498 -13.7899322 -0.06817124 0 0 Z " fill="#010101" transform="translate(2941.125,2006.6875)"/>
<path d="M0 0 C0.99515625 0.12117188 1.9903125 0.24234375 3.015625 0.3671875 C21.53784395 2.79389533 40.21301244 11.47250886 54 24 C54.90363281 24.81082031 55.80726563 25.62164063 56.73828125 26.45703125 C72.42262209 41.27363539 79.69912396 58.95988368 83 80 C83.33 81.65 83.66 83.3 84 85 C84 94.24 84 103.48 84 113 C31.86 113 -20.28 113 -74 113 C-71.59321054 151.91238862 -71.59321054 151.91238862 -55 186 C-54.2575 187.051875 -53.515 188.10375 -52.75 189.1875 C-39.2640448 202.97995418 -21.4310009 209.77092162 -2.39892578 210.16674805 C21.34385041 210.40289782 39.9018754 202.4426965 57 186 C57.7115625 185.32839844 58.423125 184.65679688 59.15625 183.96484375 C63.94079185 179.33671961 68.04042476 174.34542658 72 169 C76.35135393 170.48268356 79.59870821 172.7300545 83.25 175.5 C84.06210938 176.10521484 84.06210938 176.10521484 84.890625 176.72265625 C88.86761192 179.73522384 88.86761192 179.73522384 90 182 C82.71149315 193.15771419 74.4732364 202.60279278 65 212 C64.32582031 212.68320313 63.65164062 213.36640625 62.95703125 214.0703125 C51.3984487 225.14465571 37.09685774 232.91046988 22 238 C21.3208252 238.22913086 20.64165039 238.45826172 19.94189453 238.69433594 C17.80139018 239.40341181 15.65399763 240.08310481 13.5 240.75 C12.87279053 240.94899902 12.24558105 241.14799805 11.59936523 241.35302734 C-0.72755797 244.96173837 -13.73439132 245.47571483 -26.5 245.5 C-27.24790802 245.50201416 -27.99581604 245.50402832 -28.76638794 245.50610352 C-62.94824064 245.44474141 -96.2018068 236.15326803 -122 213 C-122.75539063 212.33871094 -123.51078125 211.67742188 -124.2890625 210.99609375 C-145.47117822 191.27352311 -156.82356523 161.00274023 -158.1640625 132.51318359 C-159.29124669 96.12861734 -151.56659943 64.04792859 -126.265625 36.95703125 C-118.49958452 28.84510038 -110.67677775 21.78288874 -101 16 C-100.42459473 15.65533691 -99.84918945 15.31067383 -99.25634766 14.95556641 C-69.37433105 -2.66549793 -33.80735033 -5.85444359 0 0 Z " fill="#010101" transform="translate(2216,2009)"/>
<path d="M0 0 C0.93751099 -0.01567017 1.87502197 -0.03134033 2.84094238 -0.04748535 C8.61417863 -0.02356971 8.61417863 -0.02356971 10.93757725 1.38805866 C12.91958255 4.41356057 12.62634508 7.51734756 12.59056091 11.01567078 C12.59629776 12.19936264 12.59629776 12.19936264 12.6021505 13.40696746 C12.6114611 16.06014536 12.59942803 18.71280489 12.58764648 21.3659668 C12.59011357 23.26473711 12.59395104 25.16350607 12.59906006 27.06227112 C12.60741035 31.15636915 12.60657992 35.25032816 12.59887505 39.34442711 C12.58731019 45.82008189 12.59944038 52.29555718 12.61549377 58.77119446 C12.65172281 74.86020823 12.65791973 90.94921821 12.65539551 107.03826904 C12.65368414 119.53246163 12.66081913 132.02650805 12.69537407 144.52065974 C12.71216545 150.95547204 12.71037479 157.38992801 12.69455135 163.82473886 C12.68874862 167.833855 12.69950549 171.84280276 12.71479797 175.85188866 C12.71852011 177.70780863 12.71542797 179.56375703 12.70492744 181.41965103 C12.69151959 183.95916174 12.70279721 186.49744873 12.71995544 189.03691101 C12.71014867 189.76640589 12.70034189 190.49590077 12.69023794 191.24750155 C12.77653445 197.45039777 14.82055241 202.61852547 18.9375 207.296875 C27.34887844 213.42094878 37.12026578 215.56166455 47.21875 217.34375 C47.21875 222.95375 47.21875 228.56375 47.21875 234.34375 C-1.62125 234.34375 -50.46125 234.34375 -100.78125 234.34375 C-100.78125 228.73375 -100.78125 223.12375 -100.78125 217.34375 C-99.51410156 217.17359375 -98.24695312 217.0034375 -96.94140625 216.828125 C-82.56183881 215.22113505 -82.56183881 215.22113505 -70.40625 208.09375 C-65.55691375 199.88718096 -65.35352323 192.83842708 -65.40893555 183.46728516 C-65.40650394 182.07347848 -65.40278105 180.67967356 -65.39787292 179.28587341 C-65.38850898 175.51917277 -65.39785221 171.75273405 -65.41120505 167.98605394 C-65.42257287 164.03093489 -65.41840782 160.07582773 -65.41645813 156.12069702 C-65.41557663 149.47820797 -65.42662368 142.83582124 -65.44506836 136.19335938 C-65.46621633 128.53393515 -65.46974867 120.87466092 -65.4635064 113.21521342 C-65.45779334 105.82446938 -65.46348234 98.43377771 -65.47467995 91.04304123 C-65.47930207 87.90853269 -65.48021017 84.77405644 -65.4780941 81.63954544 C-65.47619767 77.9409307 -65.48441817 74.24246659 -65.5001545 70.54388618 C-65.50635815 68.55395073 -65.50291016 66.56399235 -65.49908447 64.5740509 C-65.563276 53.65250411 -65.88045013 44.49035254 -73.78125 36.34375 C-83.2073789 27.60536441 -94.55138427 25.56736195 -106.78125 23.34375 C-106.78125 17.40375 -106.78125 11.46375 -106.78125 5.34375 C-95.20082806 4.68465599 -83.62011232 4.03144895 -72.03881073 3.38799286 C-66.65848056 3.08883902 -61.27830668 2.78732187 -55.8984375 2.47998047 C-14.65757163 0.12748724 -14.65757163 0.12748724 0 0 Z " fill="#010101" transform="translate(2747.78125,2011.65625)"/>
<path d="M0 0 C1.34900378 4.04701135 0.21978987 5.47498799 -1.4375 9.375 C-1.99288232 10.70619989 -2.54613945 12.03828773 -3.09765625 13.37109375 C-3.40074707 14.10054199 -3.70383789 14.82999023 -4.01611328 15.58154297 C-5.88246193 20.16914837 -7.62170514 24.80578446 -9.375 29.4375 C-9.73263428 30.37964355 -10.09026855 31.32178711 -10.45874023 32.29248047 C-11.30698668 34.52788365 -12.15408251 36.7637147 -13 39 C-13.81863525 38.97905273 -14.63727051 38.95810547 -15.48071289 38.93652344 C-37.09173139 38.45906543 -58.6587315 38.60475387 -79 47 C-79.6192334 47.25152832 -80.2384668 47.50305664 -80.87646484 47.76220703 C-89.30763701 51.21251451 -97.41655577 54.90231037 -105 60 C-106.30130859 60.87398437 -106.30130859 60.87398437 -107.62890625 61.765625 C-114.99692867 66.92219261 -121.5593389 72.75091664 -128 79 C-128.78632812 79.74894531 -129.57265625 80.49789063 -130.3828125 81.26953125 C-132.17900069 83.11150463 -133.69909821 84.78255377 -135 87 C-134.7522635 92.82180778 -129.63115409 97.66894788 -126 102 C-125.56163818 102.54551514 -125.12327637 103.09103027 -124.67163086 103.65307617 C-121.18626633 107.89550048 -117.52032651 111.24513248 -113.0625 114.4375 C-112.41861328 114.90341553 -111.77472656 115.36933105 -111.11132812 115.84936523 C-106.56893928 119.06175055 -101.89893264 121.92794092 -97 124.5625 C-96.40195557 124.88468506 -95.80391113 125.20687012 -95.18774414 125.53881836 C-91.19431844 127.5981983 -87.326319 128.89082893 -83 130 C-83.64066406 129.44054688 -84.28132813 128.88109375 -84.94140625 128.3046875 C-94.52235834 119.42338765 -101.557528 108.01786029 -102.37109375 94.6171875 C-102.74767361 80.07541139 -99.96768441 69.03177273 -90 58 C-89.50113281 57.38640625 -89.00226563 56.7728125 -88.48828125 56.140625 C-80.8158518 47.40526451 -68.56705601 42.65329497 -57.15380859 41.78295898 C-42.64994201 41.21797874 -28.95465759 41.936012 -15 46 C-14.15099121 46.24669434 -13.30198242 46.49338867 -12.42724609 46.74755859 C13.59392922 54.51244128 48.32932028 69.49398042 64 93 C34.44385154 124.37188455 -8.81764816 147.30566605 -51 155 C-52.28003906 155.24492188 -53.56007813 155.48984375 -54.87890625 155.7421875 C-68.72740305 157.9232884 -83.02318443 157.16379081 -97 157 C-100.3 163.27 -103.6 169.54 -107 176 C-108.30186419 172.09440743 -107.09860879 169.81310646 -105.69140625 166.14453125 C-105.44583481 165.48289474 -105.20026337 164.82125824 -104.94725037 164.13957214 C-104.16096172 162.02720586 -103.36193327 159.91992225 -102.5625 157.8125 C-102.02714873 156.38117554 -101.49263309 154.94953823 -100.95898438 153.51757812 C-99.64899138 150.00801514 -98.32755256 146.50295647 -97 143 C-96.09870361 142.98018066 -95.19740723 142.96036133 -94.26879883 142.93994141 C-90.85971709 142.8608991 -87.45099614 142.77418797 -84.04223633 142.68261719 C-82.57909409 142.64480907 -81.11587398 142.60988163 -79.65258789 142.578125 C-70.28096647 142.37236727 -61.24666 141.70562646 -52 140 C-52.63800537 139.98541748 -53.27601074 139.97083496 -53.93334961 139.95581055 C-100.373904 138.77571924 -139.00040113 121.77389149 -173 90 C-171.4204115 86.01831537 -168.66068065 83.45707057 -165.5625 80.625 C-164.99901855 80.10897217 -164.43553711 79.59294434 -163.85498047 79.0612793 C-151.72722791 68.20851221 -138.23770082 58.85472795 -124 51 C-123.1651709 50.53352051 -122.3303418 50.06704102 -121.47021484 49.58642578 C-100.85070779 38.14666006 -80.18300312 30.39254368 -57 26 C-56.09813965 25.81824219 -55.1962793 25.63648438 -54.26708984 25.44921875 C-50.18673853 24.88817807 -46.2143889 24.87581723 -42.1015625 24.90234375 C-41.26660248 24.9037587 -40.43164246 24.90517365 -39.57138062 24.90663147 C-36.92254958 24.91219826 -34.2738052 24.92474453 -31.625 24.9375 C-29.82161581 24.9425193 -28.01823029 24.94708145 -26.21484375 24.95117188 C-21.80983614 24.96130299 -17.4050143 24.9808847 -13 25 C-8.71 16.75 -4.42 8.5 0 0 Z " fill="#080D31" transform="translate(1477,1174)"/>
<path d="M0 0 C0.67933594 0.38929687 1.35867187 0.77859375 2.05859375 1.1796875 C8.42155791 5.37204985 13.00367727 11.5946624 17 18 C17.42244492 18.67284531 17.84488983 19.34569061 18.28013611 20.03892517 C22.34501872 27.2413892 22.74676562 33.48334388 22.7421875 41.64453125 C22.75882263 42.98939525 22.77746557 44.33423565 22.79794312 45.67904663 C22.84602379 49.30306974 22.86218741 52.92652729 22.86921692 56.55083847 C22.87502119 58.82078884 22.88769383 61.09059712 22.90270996 63.36050415 C22.95482077 71.29543162 22.98025732 79.22994545 22.98144531 87.16503906 C22.98328018 94.53793755 23.04490223 101.90871748 23.13408089 109.2810297 C23.2081841 115.63386526 23.23954265 121.98600585 23.23832512 128.33927059 C23.23835336 132.12410253 23.25532133 135.90692515 23.31585693 139.6913147 C23.37139793 143.2515607 23.37334926 146.80801682 23.3356514 150.36845779 C23.3284023 152.28225971 23.37521536 154.19603283 23.42416382 156.10922241 C23.32225917 161.4009624 23.01532911 164.71501821 19.67321777 168.94473267 C7.58602011 180.24316169 -6.74748168 185.74517557 -23.22265625 185.34375 C-33.70134632 184.39015669 -41.95980629 180.68830273 -50 174 C-50.63550781 173.47664063 -51.27101563 172.95328125 -51.92578125 172.4140625 C-60.12225618 164.96272165 -64.2254417 155.12740653 -67.75 144.875 C-68.03166016 144.07175293 -68.31332031 143.26850586 -68.60351562 142.44091797 C-73.3950492 127.73754256 -74.53101231 112.73654337 -74.375 97.375 C-74.37034729 96.552276 -74.36569458 95.729552 -74.36090088 94.88189697 C-74.1582636 64.16342223 -70.62096991 29.80775406 -47.84375 6.82421875 C-35.4051343 -4.82633397 -15.34423889 -9.12050087 0 0 Z " fill="#FEFEFE" transform="translate(2490,2035)"/>
<path d="M0 0 C0.80824219 -0.01804687 1.61648437 -0.03609375 2.44921875 -0.0546875 C13.48498639 0.20762277 25.44798928 7.32799716 33.171875 14.875 C41.11703956 24.11040496 44.74913129 34.48910017 44.40625 46.6328125 C43.02917952 58.04660819 37.29447327 67.64300147 28.61328125 75.03125 C15.7094936 84.59261228 2.61696172 86.15133284 -13 85 C-17.06441696 84.21910507 -20.36853789 82.9634221 -24 81 C-24.94230469 80.49082031 -25.88460937 79.98164062 -26.85546875 79.45703125 C-37.59068539 73.12600605 -44.05853552 64.82439344 -48 53 C-49.23984665 38.86574822 -48.35069701 27.35853398 -39.03515625 16.1640625 C-28.10050429 4.53681263 -15.70047897 -0.34846932 0 0 Z " fill="#010101" transform="translate(2717,1884)"/>
<path d="M0 0 C0.05736499 8.64357954 0.05680249 17.28487304 0.00975037 25.92840576 C-0.0137915 31.63431106 0.03941812 37.33574192 0.12556458 43.04098511 C0.17677525 47.1745775 0.18061377 51.30747671 0.17599487 55.44134521 C0.18361967 57.46840846 0.21051106 59.49549743 0.25735474 61.52203369 C0.63076564 78.50234784 0.63076564 78.50234784 -3.34423828 83.453125 C-14.02581718 93.40318739 -26.5589704 97.76276637 -41.0390625 97.3828125 C-47.96811902 96.71314037 -52.49892852 93.95736029 -57.875 89.75 C-66.66476687 78.37500758 -66.06781734 63.68769452 -65 50 C-63.02263251 37.77459595 -55.88138284 27.47894845 -46 20.3125 C-35.60966041 13.42203232 -24.17210128 8.40283158 -12.75 3.5 C-11.93966309 3.14929443 -11.12932617 2.79858887 -10.29443359 2.43725586 C-9.53211426 2.11764893 -8.76979492 1.79804199 -7.984375 1.46875 C-7.31116211 1.18451172 -6.63794922 0.90027344 -5.94433594 0.60742188 C-4 0 -4 0 0 0 Z " fill="#FDFDFD" transform="translate(2968,2120)"/>
<path d="M0 0 C10.33600842 7.22104698 14.92861626 17.08902402 18 29 C18.49886719 30.65902344 18.49886719 30.65902344 19.0078125 32.3515625 C21.74700334 42.42402014 22.13674273 52.67695535 22.0546875 63.0546875 C22.05073975 64.01624756 22.04679199 64.97780762 22.04272461 65.96850586 C22.03252748 68.31238916 22.01821331 70.65616764 22 73 C-3.00199155 73.61000252 -27.98903667 74.20542237 -53 74 C-53.36364686 61.21454922 -52.93726227 49.4731184 -50 37 C-49.79503906 35.95714844 -49.59007813 34.91429688 -49.37890625 33.83984375 C-47.02111494 22.72454186 -41.92522816 10.13630235 -32.53515625 3.171875 C-22.33227612 -2.69518403 -10.99785192 -6.45905589 0 0 Z " fill="#FCFCFC" transform="translate(2195,2029)"/>
<path d="M0 0 C7.60133061 6.09234661 13.15093716 14.31667728 14.23828125 24.15625 C14.54697709 33.90453962 12.09858619 42.06051432 5.6875 49.5 C2.04934183 53.23389918 -1.29709241 55.78686702 -6 58 C-7.0209375 58.5878125 -7.0209375 58.5878125 -8.0625 59.1875 C-16.36976578 62.6711921 -25.25179484 61.50373238 -33.359375 58.25390625 C-41.14967803 54.55466472 -45.85182724 49.50806347 -50 42 C-50.34160156 41.38511719 -50.68320313 40.77023437 -51.03515625 40.13671875 C-54.20425948 33.25313173 -54.21721784 24.61442468 -52.30859375 17.37890625 C-51.36702497 15.10574648 -50.29316571 13.09176647 -49 11 C-48.59910156 10.31421875 -48.19820312 9.6284375 -47.78515625 8.921875 C-43.13015031 1.85166307 -36.13835618 -2.35892772 -28.375 -5.4375 C-18.27632679 -7.1206122 -8.66081407 -5.65055054 0 0 Z " fill="#FBFBFC" transform="translate(1443,1237)"/>
<path d="M0 0 C39.93 0 79.86 0 121 0 C121 0.33 121 0.66 121 1 C81.73 1 42.46 1 2 1 C2 222.76 2 444.52 2 673 C40.94 673 79.88 673 120 673 C120 606.67 120 540.34 120 472 C120.33 472 120.66 472 121 472 C121 538.99 121 605.98 121 675 C81.07 675 41.14 675 0 675 C0 452.25 0 229.5 0 0 Z " fill="#33436E" transform="translate(2179,1190)"/>
<path d="M0 0 C-0.99257812 0.20753906 -1.98515625 0.41507813 -3.0078125 0.62890625 C-18.27243057 4.00864513 -31.36491385 9.32096982 -40.7734375 22.48046875 C-45.99148917 30.68935492 -48.56355481 38.58126902 -48.4375 48.3125 C-48.42992676 49.14064209 -48.42235352 49.96878418 -48.41455078 50.82202148 C-48.03813448 64.92389485 -42.01306172 76.60992658 -31.9296875 86.30859375 C-30.02079037 87.98177686 -28.05283176 89.50827559 -26 91 C-31.1859286 90.40848002 -35.33768551 88.77174927 -40 86.5625 C-40.74040527 86.21268066 -41.48081055 85.86286133 -42.24365234 85.50244141 C-49.79072543 81.80891774 -56.39225018 77.15492006 -63 72 C-63.69480469 71.47792969 -64.38960937 70.95585938 -65.10546875 70.41796875 C-72.31424467 64.69383776 -79.36251489 56.48746525 -83 48 C-81.7139401 44.14182029 -78.83768754 41.3126398 -76.125 38.375 C-75.6403125 37.85010986 -75.155625 37.32521973 -74.65625 36.78442383 C-60.96687874 22.25921115 -21.90616485 -7.65143557 0 0 Z " fill="#F7F8FA" transform="translate(1424,1215)"/>
<path d="M0 0 C11.54583403 3.59824782 21.56657943 9.52737225 31 17 C31.63292969 17.47953125 32.26585937 17.9590625 32.91796875 18.453125 C38.45547637 22.86285647 42.68560002 28.4303507 47 34 C47.74056641 34.92425781 47.74056641 34.92425781 48.49609375 35.8671875 C50.16391142 38.09479172 51.02451626 39.48340742 50.890625 42.3046875 C49.72276059 45.83901401 47.6484728 48.11242831 45.125 50.75 C44.63104736 51.27440674 44.13709473 51.79881348 43.62817383 52.33911133 C29.43125867 67.12634417 7.4683671 82.45544996 -13 87 C-15.296875 86.58984375 -15.296875 86.58984375 -17 86 C-16.16597656 85.72027344 -15.33195312 85.44054688 -14.47265625 85.15234375 C-1.97069503 80.69860957 7.43387945 74.06381203 13.6875 62.1875 C19.28328745 50.16558245 21.59764431 37.28578579 17.046875 24.40625 C12.837406 14.73075409 7.52111524 7.30622623 0 0 Z " fill="#FAFAFB" transform="translate(1452,1225)"/>
<path d="M0 0 C0.33 0 0.66 0 1 0 C1 105.6 1 211.2 1 320 C-38.93 320 -78.86 320 -120 320 C-120 216.05 -120 112.1 -120 5 C-118.05967637 8.88064727 -117.75055971 10.190683 -117.75390434 14.31795883 C-117.74992225 15.40229226 -117.74594015 16.48662569 -117.74183738 17.6038177 C-117.74766307 18.79446936 -117.75348875 19.98512102 -117.75949097 21.21185303 C-117.75778212 22.47708841 -117.75607327 23.74232378 -117.75431263 25.04589963 C-117.74983515 28.55999424 -117.75784825 32.07396721 -117.76786876 35.58804631 C-117.7764952 39.37669578 -117.77358367 43.16533823 -117.77206421 46.95399475 C-117.77101485 53.5188332 -117.7772968 60.08363193 -117.78853989 66.64846039 C-117.80478498 76.14012744 -117.81000188 85.63177527 -117.81251587 95.12345472 C-117.81689453 110.52258096 -117.83020827 125.92168604 -117.84912109 141.32080078 C-117.86747547 156.28076064 -117.88163414 171.24071475 -117.89013672 186.20068359 C-117.89066217 187.12261433 -117.89118761 188.04454507 -117.89172898 188.99441311 C-117.89433903 193.61940855 -117.89686645 198.24440404 -117.89935279 202.86939955 C-117.92009061 241.24628517 -117.95696324 279.62313163 -118 318 C-79.06 318 -40.12 318 0 318 C0 213.06 0 108.12 0 0 Z " fill="#34446F" transform="translate(2047,1545)"/>
<path d="M0 0 C4.36350222 2.22291622 7.09544338 4.45022584 9 9 C9.54223844 13.26044487 9.30065535 15.42096006 7.3125 19.25 C3.97439585 23.21963737 1.74207896 24.77828086 -3.4375 25.4375 C-8.63636767 24.79904257 -11.55338486 22.73593816 -14.875 18.75 C-16.36842042 15.09941676 -16.81945396 11.84166033 -16 8 C-12.30926534 1.56596065 -7.32235277 -1.12331548 0 0 Z " fill="#0A0F33" transform="translate(1426,1252)"/>
<path d="M0 0 C1.37391836 4.12175507 -0.20473023 6.689259 -1.8125 10.5 C-2.08642578 11.17675781 -2.36035156 11.85351562 -2.64257812 12.55078125 C-3.89233459 15.58975739 -5.1718195 18.25772926 -7 21 C-7.99 20.34 -8.98 19.68 -10 19 C-6.7 12.73 -3.4 6.46 0 0 Z " fill="#383B50" transform="translate(1477,1174)"/>
<path d="M0 0 C0.66 0.33 1.32 0.66 2 1 C-0.9100866 4.2601206 -3.39160619 5.85085989 -7.5 7.3125 C-8.4384375 7.65925781 -9.376875 8.00601562 -10.34375 8.36328125 C-13.06431829 9.01541747 -14.40925868 8.94708704 -17 8 C-16.10796875 7.67386719 -15.2159375 7.34773438 -14.296875 7.01171875 C-12.54117187 6.35623047 -12.54117187 6.35623047 -10.75 5.6875 C-9.58984375 5.25824219 -8.4296875 4.82898437 -7.234375 4.38671875 C-4.4058701 3.17401435 -2.33463456 1.97057026 0 0 Z " fill="#B8BBCD" transform="translate(1452,1303)"/>
<path d="M0 0 C0 0.33 0 0.66 0 1 C-2.05078125 1.22786458 -4.1015625 1.45572917 -6.15234375 1.68359375 C-8.01140229 1.81886614 -8.01140229 1.81886614 -9 3 C-10.51928038 3.07179964 -12.04167482 3.08392007 -13.5625 3.0625 C-14.38878906 3.05347656 -15.21507812 3.04445313 -16.06640625 3.03515625 C-16.70449219 3.02355469 -17.34257813 3.01195312 -18 3 C-12.4830226 0.03509378 -6.15309721 -1.98487007 0 0 Z " fill="#3F5079" transform="translate(1853,1378)"/>
<path d="M0 0 C0 3.54016293 -0.73358567 4.41055605 -2.8125 7.1875 C-3.33457031 7.90292969 -3.85664063 8.61835937 -4.39453125 9.35546875 C-4.92433594 9.89816406 -5.45414063 10.44085937 -6 11 C-6.99 11 -7.98 11 -9 11 C-6.03 7.37 -3.06 3.74 0 0 Z " fill="#2F416D" transform="translate(2328,1543)"/>
<path d="M0 0 C0 3.54016293 -0.73358567 4.41055605 -2.8125 7.1875 C-3.33457031 7.90292969 -3.85664063 8.61835937 -4.39453125 9.35546875 C-4.92433594 9.89816406 -5.45414063 10.44085937 -6 11 C-6.99 11 -7.98 11 -9 11 C-6.03 7.37 -3.06 3.74 0 0 Z " fill="#2D3F6C" transform="translate(2368,1491)"/>
<path d="M0 0 C0.99 0.66 1.98 1.32 3 2 C1.35 4.97 -0.3 7.94 -2 11 C-3.13643966 7.59068103 -2.86747764 6.99664544 -1.5625 3.8125 C-1.13130859 2.73935547 -1.13130859 2.73935547 -0.69140625 1.64453125 C-0.46324219 1.10183594 -0.23507812 0.55914063 0 0 Z " fill="#2C2E44" transform="translate(1372,1339)"/>
<path d="M0 0 C0 0.99 0 1.98 0 3 C-2.5 5.1875 -2.5 5.1875 -5 7 C-5 6.01 -5 5.02 -5 4 C-2.5 1.8125 -2.5 1.8125 0 0 Z " fill="#151937" transform="translate(1417,1253)"/>
</svg>
